
<svg
   width="261mm"
   height="228mm"
   viewBox="0 0 261 228"
   version="1.1"
   id="svg5"
   inkscape:version="1.1.2 (b8e25be833, 2022-02-05)"
   sodipodi:docname="fondo_agua.svg"
   xmlns:inkscape="http://www.inkscape.org/namespaces/inkscape"
   xmlns:sodipodi="http://sodipodi.sourceforge.net/DTD/sodipodi-0.dtd"
   xmlns="http://www.w3.org/2000/svg"
   xmlns:svg="http://www.w3.org/2000/svg">
  <sodipodi:namedview
     id="namedview7"
     pagecolor="#505050"
     bordercolor="#eeeeee"
     borderopacity="1"
     inkscape:pageshadow="0"
     inkscape:pageopacity="0"
     inkscape:pagecheckerboard="0"
     inkscape:document-units="mm"
     showgrid="false"
     inkscape:lockguides="true"
     width="209mm"
     inkscape:zoom="0.57994528"
     inkscape:cx="557.81125"
     inkscape:cy="355.20593"
     inkscape:window-width="1600"
     inkscape:window-height="837"
     inkscape:window-x="-8"
     inkscape:window-y="-8"
     inkscape:window-maximized="1"
     inkscape:current-layer="layer1" />
  <defs
     id="defs2" />
  <g
     inkscape:groupmode="layer"
     id="layer1"
     inkscape:label="Capa 4"
     style="display:inline" />
  <g
     inkscape:groupmode="layer"
     id="layer4"
     inkscape:label="Capa 3"
     style="display:inline"
     sodipodi:insensitive="true">
    <path
       style="fill:#4ec4e5;fill-opacity:1;stroke:none;stroke-width:0.264583px;stroke-linecap:butt;stroke-linejoin:miter;stroke-opacity:1"
       d="m 105.5699,0.08064897 10.56506,15.32336203 2.82272,11.371548 25.00128,19.92037 18.59562,17.50591 18.47696,28.627884 20.18779,35.585257 10.60714,27.25922 3.19355,18.59101 8.32603,18.70507 28.51383,34.67281 H 0.13983434 V 0.21681597 Z"
       id="path207" />
  </g>
  <g
     inkscape:groupmode="layer"
     id="layer2"
     inkscape:label="Capa 2"
     style="display:inline"
     sodipodi:insensitive="true">
    <path
       style="fill:#111111;fill-opacity:1;stroke:none;stroke-width:0.264583px;stroke-linecap:butt;stroke-linejoin:miter;stroke-opacity:1"
       d="m 255.28154,227.52903 c 0,0 -37.86636,-32.16359 -40.37558,-61.36175 -2.50921,-29.19815 -26.46083,-67.064517 -26.46083,-67.064517 0,0 -23.95161,-35.813366 -31.25115,-43.341016 -7.29954,-7.527649 -37.86636,-34.216591 -37.86636,-34.216591 l -4.56221,-13.0023041 -5.93088,-8.89631293 -5.93087,0.228111 c 0,0 11.40553,10.72119903 11.63364,20.52995403 0.22811,9.808755 36.95392,35.129033 36.95392,35.129033 l 29.88249,41.972346 c 0,0 26.0046,39.919367 25.77649,52.465447 -0.22811,12.54608 17.1083,51.09677 29.88249,66.60829 12.77419,15.51152 18.24885,10.94931 18.24885,10.94931 z"
       id="path55" />
    <path
       style="opacity:1;fill:#111111;fill-opacity:1;stroke:none;stroke-width:0.264583px;stroke-linecap:butt;stroke-linejoin:miter;stroke-opacity:1"
       d="m 54.886376,227.52903 -5.930875,-1.93894 -2.623272,-3.53571 1.368664,-7.29954 0.114055,-7.18548 -10.379032,-11.86176 -7.869816,-2.85138 -2.623271,-3.07949 8.782257,-1.82489 6.615207,0.11406 6.273042,-4.22005 3.535714,-5.24654 -0.114055,-1.93894 -0.228111,-5.13249 4.105991,-1.71083 3.535714,-7.29954 5.58871,-1.71083 1.596774,-0.34216 -3.87788,-2.39517 -3.535714,1.59678 0.456221,-2.62327 h 1.482719 l -2.965438,-2.28111 -4.448157,1.59678 -6.158986,7.18548 -7.185484,9.6947 0.114056,5.47466 -5.816821,1.93893 -3.307603,-2.50921 h -5.816821 l -5.702763,3.19355 -3.877882,-0.22812 -0.798385,6.3871 v 1.59678 l 2.167048,1.59677 -0.342164,2.62327 8.896313,4.67627 8.440092,8.09793 0.912442,3.07949 -2.167051,3.76382 -4.562212,0.11406 0.114056,3.64977 4.448156,0.34217 0.342166,3.76382 3.64977,5.81682 -1.026498,1.0265 z"
       id="path11823" />
    <path
       style="fill:#000000;stroke:none;stroke-width:0.264583px;stroke-linecap:butt;stroke-linejoin:miter;stroke-opacity:1"
       d="m 46.446284,227.41498 -2.737327,-1.93894 -1.824885,-6.04493 c 0,0 1.026498,-1.93894 1.140553,-2.85138 0.114055,-0.91245 0,-6.3871 0,-6.3871 l 0.114055,-5.13249 -4.562211,-1.14056 -0.456222,-2.39515 -1.140553,-3.0795 -6.957373,-2.62327 -7.071427,-5.13249 v -2.50922 l 2.167049,-2.16704 1.824886,-0.34217 3.763824,0.57028 c 0,0 1.482719,0.22811 2.281106,0.22811 0.798387,0 8.211982,-1.59678 8.211982,-1.59678 l 1.368663,-1.25461 3.307604,-1.14055 c 0,0 1.254608,-1.59678 1.482719,-2.39516 0.22811,-0.79839 0.570276,-3.3076 0.570276,-3.3076 0,0 -1.482719,-0.45623 -1.482719,-1.93895 0,-1.48272 0.798388,-4.3341 0.798388,-4.3341 l 2.965437,-0.91244 3.991936,-1.93894 0.114055,-2.50922 -0.342166,-1.93893 c 0,0 1.71083,-0.57028 1.93894,-1.14056 0.228111,-0.57027 -2.965438,-0.57027 -2.965438,-0.57027 l -1.482719,3.3076 -2.395161,2.50921 -1.93894,3.30761 -2.623272,4.10599 0.114056,4.90438 -2.395162,0.79838 -2.737327,2.50922 -4.220046,0.57028 -2.167051,0.11405 -3.421659,-2.39516 -8.097927,3.99194 -0.912442,2.16705 1.71083,2.62327 3.877879,4.79032 4.904379,3.19355 4.676268,3.64977 2.395161,2.2811 1.710829,4.33411 -2.052995,5.81682 -0.798387,4.22004 c 0,0 0.912442,2.73733 1.026497,3.19355 0.114056,0.45622 3.421659,4.3341 3.421659,4.3341 l 2.167051,1.93894 z"
       id="path13218" />
    <path
       style="fill:#111111;fill-opacity:1;stroke:none;stroke-width:0.264583px;stroke-linecap:butt;stroke-linejoin:miter;stroke-opacity:1"
       d="m 105.8691,227.52903 -4.10599,-2.50921 -4.790332,-1.59678 v -3.42166 c 0,0 0.45623,-0.45622 0,-1.59677 -0.456217,-1.14055 -3.193546,-4.56221 -3.193546,-5.47466 0,-0.91244 0,-2.96543 0,-2.96543 l 2.96544,-2.50922 -3.19355,-0.45622 -4.790321,2.28111 -0.456221,2.05299 0.684332,4.3341 -0.228111,2.96544 3.649768,5.01843 4.562209,3.19355 1.82489,1.36866 z"
       id="path13562" />
    <path
       style="fill:#111111;fill-opacity:1;stroke:none;stroke-width:0.264583px;stroke-linecap:butt;stroke-linejoin:miter;stroke-opacity:1"
       d="m 159.47509,227.52903 -3.42166,-3.42166 v -2.50921 h 5.93087 l 1.59678,-2.053 3.19355,-5.24654 -1.14056,-2.053 -4.3341,-0.91244 -3.19355,5.93088 c 0,0 -6.15898,0.68433 -7.52764,0.68433 -1.36867,0 -5.47466,0 -5.47466,0 l -0.68433,4.10599 2.50921,2.50922 3.64978,3.42165 z"
       id="path13630" />
    <path
       style="fill:#111111;fill-opacity:1;stroke:none;stroke-width:0.264583px;stroke-linecap:butt;stroke-linejoin:miter;stroke-opacity:1"
       d="m 70.055731,170.38733 20.187787,1.59677 c 0,0 4.562213,0.91244 5.474655,0.91244 0.912442,0 23.039177,-1.48271 23.039177,-1.48271 l 12.20391,-1.0265 11.06337,-3.53572 8.78226,-2.16705 0.45622,-1.59677 -9.46659,-6.3871 -24.75,-4.22004 c 0,0 -6.84332,0.34216 -8.09793,1.36866 -1.25461,1.0265 -3.42166,2.28111 -3.42166,2.28111 l -10.607145,1.36866 -10.036865,2.16705 -7.75576,0.22811 -12.089862,0.91244 -1.368664,1.82489 4.790323,7.07143 z"
       id="path25214" />
    <path
       style="fill:#4ec4e5;fill-opacity:1;stroke:none;stroke-width:0.264583px;stroke-linecap:butt;stroke-linejoin:miter;stroke-opacity:1"
       d="m 145.21817,162.74562 -5.81682,2.16705 -13.91474,3.53572 -17.56452,0.22811 -14.713133,0.22811 -22.925115,-1.25461 -1.596775,-3.76382 8.896314,-1.48272 17.564514,-1.36867 14.599085,-1.82488 6.84331,-3.87788 11.40554,3.07949 10.37903,-0.11405 z"
       id="path25216" />
    <path
       style="fill:#111111;fill-opacity:1;stroke:none;stroke-width:2.065;stroke-linecap:butt;stroke-linejoin:miter;stroke-miterlimit:4;stroke-dasharray:none;stroke-opacity:1"
       d="m 208.86103,153.50714 -20.30184,-3.76382 -9.12443,-4.3341 -4.3341,-1.59678 -16.53801,7.75576 -12.43203,-1.71083 -14.48503,-2.62327 -5.47465,-0.79838 -12.08986,-17.22236 c 0,0 1.14055,-2.05299 1.59677,-2.2811 0.45622,-0.22811 3.87788,-2.05299 3.87788,-2.05299 l 4.79032,-1.71084 1.93895,-2.16705 -6.27304,-1.25461 -14.14286,-2.39515 -10.835258,-1.0265 -6.158987,-0.91245 -4.676267,-3.76382 -9.010369,-4.67627 -3.649769,-3.53571 -7.299539,-0.91244 -0.228111,-5.474667 1.482719,-7.18548 4.448157,-3.07949 7.071428,-4.33411 9.6947,-3.07949 9.694701,-1.026497 11.519585,1.824885 13.80069,-1.140553 h 10.26498 l 3.07949,-2.623272 2.053,-2.96544 5.93088,-2.85138 4.22004,-2.167051 7.6417,-1.026499 h 7.75576 l 22.81106,33.190104 17.67858,32.3917 5.47465,12.31797 z"
       id="path38064" />
    <path
       style="fill:#4ec4e5;fill-opacity:1;stroke:none;stroke-width:0.264583px;stroke-linecap:butt;stroke-linejoin:miter;stroke-opacity:1"
       d="m 170.08223,141.8735 -13.34447,7.07143 -10.7212,-1.82488 -11.06336,-1.82489 -6.72926,-1.14055 -6.84332,-11.86175 -1.82489,-3.30761 10.83525,-5.36059 8.66821,-2.16706 19.27534,12.7742 9.12443,4.67627 z"
       id="path47861" />
    <path
       style="fill:#4ec4e5;fill-opacity:1;stroke:none;stroke-width:0.264583px;stroke-linecap:butt;stroke-linejoin:miter;stroke-opacity:1"
       d="m 207.03614,149.97143 -1.02649,-4.79032 -6.04493,-15.28341 -9.92281,-19.73157 -8.55415,-0.68433 -10.83525,0.57028 h -3.53572 l -4.56221,6.27304 2.73733,12.20391 8.44009,6.27304 15.0553,12.31798 z"
       id="path61386" />
    <path
       style="fill:#4ec4e5;fill-opacity:1;stroke:none;stroke-width:0.260068px;stroke-linecap:butt;stroke-linejoin:miter;stroke-opacity:1"
       d="m 157.6502,112.90346 9.6947,-8.26473 2.96544,-2.8651 4.22005,0.77138 3.42165,-0.55098 3.30761,-2.865115 -5.58871,-9.256487 -4.56221,-5.399619 -8.4401,-12.452177 v -3.0855 l -15.39746,0.99177 -8.6682,7.71374 -4.44816,3.746672 6.15899,8.595306 3.3076,11.68082 5.47466,5.17922 z"
       id="path68129" />
    <path
       style="fill:#4ec4e5;fill-opacity:1;stroke:none;stroke-width:0.264583px;stroke-linecap:butt;stroke-linejoin:miter;stroke-opacity:1"
       d="m 158.56265,121.57166 0.45622,-2.50922 -1.82489,-1.71082 -3.42166,-3.0795 -6.15898,-5.70276 -1.71083,-0.57028 -0.45623,3.64977 -0.68433,3.53571 7.86982,1.25461 4.79032,2.39516 z"
       id="path77524" />
    <path
       style="fill:#4ec4e5;fill-opacity:1;stroke:none;stroke-width:0.264583px;stroke-linecap:butt;stroke-linejoin:miter;stroke-opacity:1"
       d="m 136.89214,97.734093 2.16705,6.957377 1.36866,3.30761 -7.6417,3.87788 -7.07143,5.58871 -2.28111,0.91244 -13.57258,-3.3076 -17.108294,-1.48272 -5.702765,-2.50922 c 0,0 -11.291475,-6.27304 -11.519586,-7.07143 -0.22811,-0.79838 -6.387096,-3.42165 -6.387096,-3.42165 l 1.368663,-10.607157 6.843318,-3.42166 c 0,0 4.562213,-3.53571 5.360598,-3.76382 0.798388,-0.22811 10.264979,-1.824887 10.264979,-1.824887 l 11.405533,0.114057 3.42166,2.16705 14.0288,0.34217 9.23848,-1.25461 3.76382,10.26497 z"
       id="path83955" />
    <path
       style="fill:#000000;stroke:#000000;stroke-width:0.264583px;stroke-linecap:butt;stroke-linejoin:miter;stroke-opacity:1"
       d="m 178.0661,142.55783 -8.09793,-5.5887 -3.99193,-2.50922 c 0,0 -3.07949,-3.53571 -3.07949,-4.22005 0,-0.68433 -3.0795,-4.90437 -3.0795,-4.90437 l -1.2546,-3.76383 0.68433,4.67627 1.14055,3.64977 2.39516,2.85138 4.67627,6.15899 2.50921,-0.22811 5.13249,5.13248 z"
       id="path88976" />
  </g>
  <g
     inkscape:groupmode="layer"
     id="layer3"
     inkscape:label="rueda">
    <circle
       style="fill:#da4e4e;fill-opacity:1;stroke:#500f29;stroke-width:0.365;stroke-miterlimit:4;stroke-dasharray:none;stroke-opacity:1"
       id="path4628-2"
       cx="190.81453"
       cy="138.57718"
       r="1.93894" />
    <g
       id="g20818">
      <circle
         style="fill:#ffbb7c;stroke:#500f29;stroke-width:0.765;stroke-miterlimit:4;stroke-dasharray:none;stroke-opacity:1;fill-opacity:1"
         id="path4524"
         cx="190.70045"
         cy="114.39747"
         r="22.240784" />
      <circle
         style="fill:#da4e4e;fill-opacity:1;stroke:#500f29;stroke-width:0.365;stroke-miterlimit:4;stroke-dasharray:none;stroke-opacity:1"
         id="path4628"
         cx="214.08179"
         cy="108.69471"
         r="1.93894" />
      <circle
         style="fill:#da4e4e;fill-opacity:1;stroke:#500f29;stroke-width:0.365;stroke-miterlimit:4;stroke-dasharray:none;stroke-opacity:1"
         id="path4628-6"
         cx="214.65208"
         cy="114.73963"
         r="1.93894" />
      <circle
         style="fill:#da4e4e;fill-opacity:1;stroke:#500f29;stroke-width:0.365;stroke-miterlimit:4;stroke-dasharray:none;stroke-opacity:1"
         id="path4628-1"
         cx="213.8537"
         cy="121.24078"
         r="1.93894" />
      <circle
         style="fill:#da4e4e;fill-opacity:1;stroke:#500f29;stroke-width:0.365;stroke-miterlimit:4;stroke-dasharray:none;stroke-opacity:1"
         id="path4628-7"
         cx="211.11636"
         cy="127.0576"
         r="1.93894" />
      <circle
         style="fill:#da4e4e;fill-opacity:1;stroke:#500f29;stroke-width:0.365;stroke-miterlimit:4;stroke-dasharray:none;stroke-opacity:1"
         id="path4628-3"
         cx="207.4666"
         cy="131.84793"
         r="1.93894" />
      <circle
         style="fill:#da4e4e;fill-opacity:1;stroke:#500f29;stroke-width:0.365;stroke-miterlimit:4;stroke-dasharray:none;stroke-opacity:1"
         id="path4628-0"
         cx="202.79033"
         cy="135.4977"
         r="1.93894" />
      <circle
         style="fill:#da4e4e;fill-opacity:1;stroke:#500f29;stroke-width:0.365;stroke-miterlimit:4;stroke-dasharray:none;stroke-opacity:1"
         id="path4628-67"
         cx="196.63133"
         cy="137.66475"
         r="1.93894" />
      <circle
         style="fill:#da4e4e;fill-opacity:1;stroke:#500f29;stroke-width:0.365;stroke-miterlimit:4;stroke-dasharray:none;stroke-opacity:1"
         id="path4628-5"
         cx="184.54147"
         cy="137.77879"
         r="1.93894" />
      <circle
         style="fill:#da4e4e;fill-opacity:1;stroke:#500f29;stroke-width:0.365;stroke-miterlimit:4;stroke-dasharray:none;stroke-opacity:1"
         id="path4628-65"
         cx="178.61061"
         cy="135.38365"
         r="1.93894" />
      <circle
         style="fill:#da4e4e;fill-opacity:1;stroke:#500f29;stroke-width:0.365;stroke-miterlimit:4;stroke-dasharray:none;stroke-opacity:1"
         id="path4628-11"
         cx="173.82028"
         cy="131.73387"
         r="1.93894" />
      <circle
         style="fill:#da4e4e;fill-opacity:1;stroke:#500f29;stroke-width:0.365;stroke-miterlimit:4;stroke-dasharray:none;stroke-opacity:1"
         id="path4628-32"
         cx="211.80069"
         cy="102.76382"
         r="1.93894" />
      <circle
         style="fill:#da4e4e;fill-opacity:1;stroke:#500f29;stroke-width:0.365;stroke-miterlimit:4;stroke-dasharray:none;stroke-opacity:1"
         id="path4628-64"
         cx="208.15092"
         cy="97.745392"
         r="1.93894" />
      <circle
         style="fill:#da4e4e;fill-opacity:1;stroke:#500f29;stroke-width:0.365;stroke-miterlimit:4;stroke-dasharray:none;stroke-opacity:1"
         id="path4628-60"
         cx="203.24655"
         cy="93.753456"
         r="1.93894" />
      <circle
         style="fill:#da4e4e;fill-opacity:1;stroke:#500f29;stroke-width:0.365;stroke-miterlimit:4;stroke-dasharray:none;stroke-opacity:1"
         id="path4628-9"
         cx="197.54379"
         cy="91.358299"
         r="1.93894" />
      <circle
         style="fill:#da4e4e;fill-opacity:1;stroke:#500f29;stroke-width:0.365;stroke-miterlimit:4;stroke-dasharray:none;stroke-opacity:1"
         id="path4628-650"
         cx="190.70045"
         cy="90.331795"
         r="1.93894" />
      <circle
         style="fill:#da4e4e;fill-opacity:1;stroke:#500f29;stroke-width:0.365;stroke-miterlimit:4;stroke-dasharray:none;stroke-opacity:1"
         id="path4628-114"
         cx="183.85715"
         cy="91.24424"
         r="1.93894" />
      <circle
         style="fill:#da4e4e;fill-opacity:1;stroke:#500f29;stroke-width:0.365;stroke-miterlimit:4;stroke-dasharray:none;stroke-opacity:1"
         id="path4628-8"
         cx="178.38249"
         cy="93.753456"
         r="1.93894" />
      <circle
         style="fill:#da4e4e;fill-opacity:1;stroke:#500f29;stroke-width:0.365;stroke-miterlimit:4;stroke-dasharray:none;stroke-opacity:1"
         id="path4628-89"
         cx="173.47812"
         cy="97.403229"
         r="1.93894" />
      <circle
         style="fill:#da4e4e;fill-opacity:1;stroke:#500f29;stroke-width:0.365;stroke-miterlimit:4;stroke-dasharray:none;stroke-opacity:1"
         id="path4628-99"
         cx="169.71428"
         cy="102.76382"
         r="1.93894" />
      <circle
         style="fill:#da4e4e;fill-opacity:1;stroke:#500f29;stroke-width:0.365;stroke-miterlimit:4;stroke-dasharray:none;stroke-opacity:1"
         id="path4628-37"
         cx="167.54724"
         cy="108.35252"
         r="1.93894" />
      <circle
         style="fill:#da4e4e;fill-opacity:1;stroke:#500f29;stroke-width:0.365;stroke-miterlimit:4;stroke-dasharray:none;stroke-opacity:1"
         id="path4628-82"
         cx="166.74886"
         cy="114.39747"
         r="1.93894" />
      <circle
         style="fill:#da4e4e;fill-opacity:1;stroke:#500f29;stroke-width:0.365;stroke-miterlimit:4;stroke-dasharray:none;stroke-opacity:1"
         id="path4628-23"
         cx="167.20508"
         cy="121.24078"
         r="1.93894" />
      <circle
         style="fill:#da4e4e;fill-opacity:1;stroke:#500f29;stroke-width:0.365;stroke-miterlimit:4;stroke-dasharray:none;stroke-opacity:1"
         id="path4628-09"
         cx="169.60023"
         cy="126.37327"
         r="1.93894" />
      <path
         style="fill:none;fill-opacity:1;stroke:#500f29;stroke-width:0.665;stroke-linecap:round;stroke-miterlimit:4;stroke-dasharray:none;stroke-dashoffset:0;stroke-opacity:1"
         id="path7541"
         sodipodi:type="arc"
         sodipodi:cx="190.47235"
         sodipodi:cy="114.28342"
         sodipodi:rx="16.195852"
         sodipodi:ry="16.195852"
         sodipodi:start="2.1293957"
         sodipodi:end="3.1589822"
         sodipodi:open="true"
         sodipodi:arc-type="arc"
         d="m 181.88857,128.01747 a 16.195852,16.195852 0 0 1 -7.60962,-14.01568" />
      <path
         style="fill:none;fill-opacity:1;stroke:#500f29;stroke-width:1.013;stroke-linecap:round;stroke-miterlimit:4;stroke-dasharray:none;stroke-dashoffset:0;stroke-opacity:1"
         id="path7805"
         sodipodi:type="arc"
         sodipodi:cx="190.58641"
         sodipodi:cy="114.28342"
         sodipodi:rx="16.423964"
         sodipodi:ry="16.423964"
         sodipodi:start="5.0770998"
         sodipodi:end="5.6968729"
         sodipodi:open="true"
         sodipodi:arc-type="arc"
         d="m 196.4445,98.939707 a 16.423964,16.423964 0 0 1 7.82285,6.256443" />
      <path
         style="fill:none;fill-opacity:1;stroke:#500f29;stroke-width:0.629;stroke-linecap:round;stroke-miterlimit:4;stroke-dasharray:none;stroke-dashoffset:0;stroke-opacity:1"
         id="path7848"
         sodipodi:type="arc"
         sodipodi:cx="190.47235"
         sodipodi:cy="114.16936"
         sodipodi:rx="16.309908"
         sodipodi:ry="16.309908"
         sodipodi:start="0.089796603"
         sodipodi:end="0.32326769"
         sodipodi:open="true"
         sodipodi:arc-type="arc"
         d="m 206.71655,115.63196 a 16.309908,16.309908 0 0 1 -0.7791,3.71851" />
      <ellipse
         style="fill:none;stroke:#500f29;stroke-width:0.565;stroke-miterlimit:4;stroke-dasharray:none;stroke-opacity:1"
         id="path1357"
         cx="190.81451"
         cy="114.28341"
         rx="2.1670506"
         ry="2.2240784" />
      <path
         style="fill:none;fill-opacity:1;stroke:#500f29;stroke-width:0.857;stroke-linecap:round;stroke-miterlimit:4;stroke-dasharray:none;stroke-dashoffset:0;stroke-opacity:1"
         id="path18605"
         sodipodi:type="arc"
         sodipodi:cx="190.81451"
         sodipodi:cy="114.39747"
         sodipodi:rx="19.617514"
         sodipodi:ry="19.617514"
         sodipodi:start="2.129389"
         sodipodi:end="2.1217246"
         sodipodi:open="true"
         sodipodi:arc-type="arc"
         d="m 180.41736,131.03316 a 19.617514,19.617514 0 0 1 -6.25842,-27.00095 19.617514,19.617514 0 0 1 26.9889,-6.310151 19.617514,19.617514 0 0 1 6.36185,26.976761 19.617514,19.617514 0 0 1 -26.96452,6.41353" />
    </g>
    <g
       id="g10166"
       transform="translate(0.11405676,0.08065552)">
      <path
         style="fill:none;stroke:#500f29;stroke-width:0.465;stroke-linecap:butt;stroke-linejoin:miter;stroke-miterlimit:4;stroke-dasharray:none;stroke-opacity:1"
         d="m 178.49654,144.05184 12.31798,-29.65437 11.63364,29.76843"
         id="path8014" />
      <path
         style="fill:none;stroke:#500f29;stroke-width:0.465;stroke-linecap:butt;stroke-linejoin:miter;stroke-miterlimit:4;stroke-dasharray:none;stroke-opacity:1"
         d="M 227.0841,144.27995 H 168.00346"
         id="path8209" />
      <path
         style="fill:none;stroke:#500f29;stroke-width:0.465;stroke-linecap:butt;stroke-linejoin:miter;stroke-miterlimit:4;stroke-dasharray:none;stroke-opacity:1"
         d="m 220.73707,144.2009 v -2.98402"
         id="path8324" />
    </g>
    <path
       style="fill:#ffbb7c;stroke:none;stroke-width:0.1;stroke-linecap:butt;stroke-linejoin:miter;stroke-miterlimit:4;stroke-dasharray:none;stroke-opacity:1;fill-opacity:1"
       d="m 223.17771,137.55069 c 0,0 0.63965,-4.25134 -2.53773,-4.44816 -3.22207,-0.19959 -2.79435,4.41964 -2.79435,4.41964 0,0 -1.59874,0.48632 -1.51124,1.88192 0.0895,1.4279 1.53975,1.8534 1.53975,1.8534 l 5.73128,-0.0285 c 0,0 1.26896,-0.45086 1.31163,-1.56826 0.0653,-1.70914 -1.73934,-2.11003 -1.73934,-2.11003 z"
       id="path21142"
       sodipodi:nodetypes="cscsccscc" />
  </g>
</svg>
